<svg xmlns="http://www.w3.org/2000/svg" version="1.1" xmlns:xlink="http://www.w3.org/1999/xlink" xmlns:svgjs="http://svgjs.dev/svgjs" width="1920" height="1080" preserveAspectRatio="none" viewBox="0 0 1920 1080"><g mask="url(&quot;#SvgjsMask1062&quot;)" fill="none"><rect width="1920" height="1080" x="0" y="0" fill="#0e2a47"></rect><path d="M1434.34,577.299C1520.314,577.226,1597.242,525.829,1638.966,450.658C1679.472,377.681,1676.613,289.014,1634.278,217.083C1592.561,146.203,1516.559,105.029,1434.34,102.98C1348.13,100.832,1260.171,132.386,1216.366,206.669C1171.965,281.964,1184.796,375.66,1229.109,451.007C1272.753,525.216,1348.248,577.372,1434.34,577.299" fill="rgba(28, 83, 142, 0.4)" class="triangle-float1"></path><path d="M1669.527,403.842C1764.816,406.88,1868.306,383.708,1915.778,301.031C1963.113,218.592,1929.605,118.433,1879.947,37.372C1832.953,-39.34,1759.254,-94.438,1669.527,-100.939C1566.227,-108.424,1449.972,-87.493,1398.712,2.503C1347.774,91.935,1391.481,200.836,1449.049,286.151C1498.992,360.166,1580.283,400.997,1669.527,403.842" fill="rgba(28, 83, 142, 0.4)" class="triangle-float2"></path><path d="M503.636,220.686C561.322,221.13,628.713,221.265,657.328,171.174C685.827,121.286,651.282,63.522,621.475,14.405C593.245,-32.113,558.037,-80.92,503.636,-82.089C447.797,-83.288,405.297,-38.822,376.689,9.147C347.172,58.64,324.335,119.429,353.987,168.84C383.102,217.356,447.056,220.251,503.636,220.686" fill="rgba(28, 83, 142, 0.4)" class="triangle-float2"></path><path d="M954.77 950.45 a313.65 313.65 0 1 0 627.3 0 a313.65 313.65 0 1 0 -627.3 0z" fill="rgba(28, 83, 142, 0.4)" class="triangle-float3"></path><path d="M1268.13 892.84 a309.18 309.18 0 1 0 618.36 0 a309.18 309.18 0 1 0 -618.36 0z" fill="rgba(28, 83, 142, 0.4)" class="triangle-float2"></path><path d="M1207.149,585.727C1242.667,584.392,1269.885,559.069,1288.908,529.045C1309.82,496.039,1327.498,457.309,1310.935,421.92C1292.18,381.847,1251.391,353.826,1207.149,354.353C1163.664,354.871,1127.433,385.661,1107.557,424.341C1089.356,459.761,1093.087,501.731,1114.001,535.62C1133.846,567.778,1169.388,587.147,1207.149,585.727" fill="rgba(28, 83, 142, 0.4)" class="triangle-float1"></path><path d="M-103.42 575.88 a356.75 356.75 0 1 0 713.5 0 a356.75 356.75 0 1 0 -713.5 0z" fill="rgba(28, 83, 142, 0.4)" class="triangle-float3"></path><path d="M1143.653,733.192C1211.838,733.533,1277.405,706.003,1314.99,649.111C1356.96,585.58,1373.855,505.096,1339.092,437.353C1301.502,364.1,1225.98,316.363,1143.653,315.225C1059.397,314.06,976.728,356.659,938.628,431.818C903.303,501.504,931.314,582.814,975.26,647.411C1013.237,703.235,1076.137,732.854,1143.653,733.192" fill="rgba(28, 83, 142, 0.4)" class="triangle-float3"></path><path d="M1465.278,127.618C1509.472,130.606,1555.568,116.48,1579.388,79.135C1604.854,39.209,1605.593,-13.098,1580.74,-53.409C1556.955,-91.987,1510.564,-107.72,1465.278,-105.95C1423.212,-104.306,1384.072,-82.204,1364.458,-44.954C1346.017,-9.932,1355.128,31.146,1375.094,65.321C1394.847,99.133,1426.208,124.976,1465.278,127.618" fill="rgba(28, 83, 142, 0.4)" class="triangle-float1"></path><path d="M1931.803,1346.145C2046.567,1355.548,2162.853,1304.413,2221.803,1205.498C2282.014,1104.467,2271.635,977.661,2211.726,876.451C2152.97,777.189,2047.063,711.055,1931.803,715.57C1823.157,719.826,1734.986,799.201,1687.452,896.989C1645.563,983.165,1668.093,1079.712,1713.883,1163.881C1762.387,1253.038,1830.645,1337.857,1931.803,1346.145" fill="rgba(28, 83, 142, 0.4)" class="triangle-float3"></path><path d="M483.04,1206.76C542.029,1206.327,582.834,1153.324,609.666,1100.788C633.72,1053.69,637.541,999.507,612.747,952.794C586.249,902.869,539.552,861.196,483.04,862.217C427.827,863.215,387.451,908.753,361.206,957.34C336.492,1003.093,330.331,1055.945,353.154,1102.67C379.254,1156.102,423.576,1207.196,483.04,1206.76" fill="rgba(28, 83, 142, 0.4)" class="triangle-float1"></path><path d="M714.45 19.52 a306.12 306.12 0 1 0 612.24 0 a306.12 306.12 0 1 0 -612.24 0z" fill="rgba(28, 83, 142, 0.4)" class="triangle-float2"></path><path d="M129.998,381.524C161.261,381.895,193.982,373.347,210.263,346.656C227.113,319.033,224.17,283.251,206.464,256.168C190.237,231.348,159.647,224.426,129.998,223.883C99.057,223.316,65.146,227.174,48.518,253.273C30.929,280.88,35.413,317.16,52.966,344.79C69.316,370.525,99.51,381.162,129.998,381.524" fill="rgba(28, 83, 142, 0.4)" class="triangle-float3"></path></g><defs><mask id="SvgjsMask1062"><rect width="1920" height="1080" fill="#ffffff"></rect></mask><style>
                @keyframes float1 {
                    0%{transform: translate(0, 0)}
                    50%{transform: translate(-10px, 0)}
                    100%{transform: translate(0, 0)}
                }

                .triangle-float1 {
                    animation: float1 5s infinite;
                }

                @keyframes float2 {
                    0%{transform: translate(0, 0)}
                    50%{transform: translate(-5px, -5px)}
                    100%{transform: translate(0, 0)}
                }

                .triangle-float2 {
                    animation: float2 4s infinite;
                }

                @keyframes float3 {
                    0%{transform: translate(0, 0)}
                    50%{transform: translate(0, -10px)}
                    100%{transform: translate(0, 0)}
                }

                .triangle-float3 {
                    animation: float3 6s infinite;
                }
            </style></defs></svg>