<svg xmlns="http://www.w3.org/2000/svg" viewBox="0 0 800 400" width="800" height="400">
  <!-- House 1 -->
  <rect x="50" y="200" width="150" height="120" fill="#FFD700" stroke="#333" stroke-width="3"/>
  <polygon points="50,200 125,120 200,200" fill="#FF6347" stroke="#333" stroke-width="3"/>
  <rect x="90" y="250" width="40" height="70" fill="#FFFFFF" stroke="#333" stroke-width="3"/>
  <rect x="150" y="230" width="30" height="30" fill="#FFFFFF" stroke="#333" stroke-width="3"/>
  
  <!-- House 2 -->
  <rect x="250" y="180" width="160" height="140" fill="#8A2BE2" stroke="#333" stroke-width="3"/>
  <polygon points="250,180 330,100 410,180" fill="#9370DB" stroke="#333" stroke-width="3"/>
  <rect x="290" y="240" width="50" height="80" fill="#FFFFFF" stroke="#333" stroke-width="3"/>
  <rect x="350" y="220" width="30" height="30" fill="#FFFFFF" stroke="#333" stroke-width="3"/>
  
  <!-- House 3 -->
  <rect x="470" y="210" width="160" height="110" fill="#20B2AA" stroke="#333" stroke-width="3"/>
  <polygon points="470,210 550,140 630,210" fill="#2E8B57" stroke="#333" stroke-width="3"/>
  <rect x="510" y="250" width="50" height="70" fill="#FFFFFF" stroke="#333" stroke-width="3"/>
  <rect x="570" y="230" width="30" height="30" fill="#FFFFFF" stroke="#333" stroke-width="3"/>
  
  <!-- Ground -->
  <rect x="0" y="320" width="800" height="80" fill="#228B22"/>
  
  <!-- Sky -->
  <rect x="0" y="0" width="800" height="320" fill="#87CEEB"/>
  
  <!-- Sun -->
  <circle cx="700" cy="100" r="60" fill="#FFD700" />
</svg>
